<svg width="17" height="17" viewBox="0 0 17 17" fill="none" xmlns="http://www.w3.org/2000/svg">
<path d="M12.75 1.24998C12.947 1.053 13.1808 0.896744 13.4382 0.790138C13.6956 0.683532 13.9714 0.628662 14.25 0.628662C14.5286 0.628662 14.8044 0.683532 15.0618 0.790138C15.3192 0.896744 15.553 1.053 15.75 1.24998C15.947 1.44697 16.1032 1.68082 16.2098 1.93819C16.3164 2.19556 16.3713 2.47141 16.3713 2.74998C16.3713 3.02856 16.3164 3.30441 16.2098 3.56178C16.1032 3.81915 15.947 4.053 15.75 4.24998L5.625 14.375L1.5 15.5L2.625 11.375L12.75 1.24998Z" stroke="#6AC7BE" stroke-width="1.25" stroke-linecap="round" stroke-linejoin="round"/>
</svg>
