<svg width="23" height="23" viewBox="0 0 23 23" fill="none" xmlns="http://www.w3.org/2000/svg">
<g clip-path="url(#clip0)">
<path d="M21.5625 5.75H1.4375C0.644958 5.75 0 5.10504 0 4.3125V1.4375C0 0.644958 0.644958 0 1.4375 0H21.5625C22.355 0 23 0.644958 23 1.4375V4.3125C23 5.10504 22.355 5.75 21.5625 5.75ZM1.4375 0.958333C1.173 0.958333 0.958333 1.173 0.958333 1.4375V4.3125C0.958333 4.577 1.173 4.79167 1.4375 4.79167H21.5625C21.827 4.79167 22.0417 4.577 22.0417 4.3125V1.4375C22.0417 1.173 21.827 0.958333 21.5625 0.958333H1.4375Z" fill="white"/>
<path d="M9.10417 22.9998H1.4375C0.644958 22.9998 0 22.3549 0 21.5623V9.104C0 8.31146 0.644958 7.6665 1.4375 7.6665H9.10417C9.89671 7.6665 10.5417 8.31146 10.5417 9.104V21.5623C10.5417 22.3549 9.89671 22.9998 9.10417 22.9998ZM1.4375 8.62484C1.173 8.62484 0.958333 8.8395 0.958333 9.104V21.5623C0.958333 21.8268 1.173 22.0415 1.4375 22.0415H9.10417C9.36867 22.0415 9.58333 21.8268 9.58333 21.5623V9.104C9.58333 8.8395 9.36867 8.62484 9.10417 8.62484H1.4375Z" fill="white"/>
<path d="M21.5627 14.3748H13.896C13.1035 14.3748 12.4585 13.7299 12.4585 12.9373V9.104C12.4585 8.31146 13.1035 7.6665 13.896 7.6665H21.5627C22.3552 7.6665 23.0002 8.31146 23.0002 9.104V12.9373C23.0002 13.7299 22.3552 14.3748 21.5627 14.3748ZM13.896 8.62484C13.6315 8.62484 13.4168 8.8395 13.4168 9.104V12.9373C13.4168 13.2018 13.6315 13.4165 13.896 13.4165H21.5627C21.8272 13.4165 22.0418 13.2018 22.0418 12.9373V9.104C22.0418 8.8395 21.8272 8.62484 21.5627 8.62484H13.896Z" fill="white"/>
<path d="M21.5627 22.9998H13.896C13.1035 22.9998 12.4585 22.3549 12.4585 21.5623V17.729C12.4585 16.9365 13.1035 16.2915 13.896 16.2915H21.5627C22.3552 16.2915 23.0002 16.9365 23.0002 17.729V21.5623C23.0002 22.3549 22.3552 22.9998 21.5627 22.9998ZM13.896 17.2498C13.6315 17.2498 13.4168 17.4645 13.4168 17.729V21.5623C13.4168 21.8268 13.6315 22.0415 13.896 22.0415H21.5627C21.8272 22.0415 22.0418 21.8268 22.0418 21.5623V17.729C22.0418 17.4645 21.8272 17.2498 21.5627 17.2498H13.896Z" fill="white"/>
</g>
<defs>
<clipPath id="clip0">
<rect width="23" height="23" fill="white"/>
</clipPath>
</defs>
</svg>
