<svg width="17" height="18" viewBox="0 0 17 18" fill="none" xmlns="http://www.w3.org/2000/svg">
<path d="M2.125 4.5H3.54167H14.875" stroke="#212121" stroke-width="1.25" stroke-linecap="round" stroke-linejoin="round"/>
<path d="M5.6665 4.5V3C5.6665 2.60218 5.81576 2.22064 6.08144 1.93934C6.34711 1.65804 6.70745 1.5 7.08317 1.5H9.9165C10.2922 1.5 10.6526 1.65804 10.9182 1.93934C11.1839 2.22064 11.3332 2.60218 11.3332 3V4.5M13.4582 4.5V15C13.4582 15.3978 13.3089 15.7794 13.0432 16.0607C12.7776 16.342 12.4172 16.5 12.0415 16.5H4.95817C4.58245 16.5 4.22211 16.342 3.95644 16.0607C3.69076 15.7794 3.5415 15.3978 3.5415 15V4.5H13.4582Z" stroke="#212121" stroke-width="1.25" stroke-linecap="round" stroke-linejoin="round"/>
<path d="M7.0835 8.25V12.75" stroke="#212121" stroke-width="1.25" stroke-linecap="round" stroke-linejoin="round"/>
<path d="M9.9165 8.25V12.75" stroke="#212121" stroke-width="1.25" stroke-linecap="round" stroke-linejoin="round"/>
</svg>
